<?xml version="1.0" encoding="UTF-8" ?>
<svg version="1.1" width="32" height="32" xmlns="http://www.w3.org/2000/svg" shape-rendering="crispEdges">
<rect x="6" y="0" width="1" height="1" fill="#FFFF00" opacity="0.003922" />
<rect x="7" y="0" width="1" height="1" fill="#FFFF00" opacity="0.007843" />
<rect x="24" y="0" width="1" height="1" fill="#FFAA00" opacity="0.011765" />
<rect x="28" y="0" width="1" height="1" fill="#FFFF00" opacity="0.003922" />
<rect x="4" y="1" width="1" height="1" fill="#FF8000" opacity="0.007843" />
<rect x="5" y="1" width="1" height="1" fill="#FFB923" opacity="0.086275" />
<rect x="8" y="1" width="1" height="1" fill="#FFAA00" opacity="0.011765" />
<rect x="22" y="1" width="1" height="1" fill="#FFFF00" opacity="0.003922" />
<rect x="25" y="1" width="1" height="1" fill="#FFC122" opacity="0.145098" />
<rect x="26" y="1" width="1" height="1" fill="#FFBE23" opacity="0.400000" />
<rect x="27" y="1" width="1" height="1" fill="#FFBF20" opacity="0.125490" />
<rect x="29" y="1" width="1" height="1" fill="#FFFF00" opacity="0.003922" />
<rect x="4" y="2" width="1" height="1" fill="#FEC022" opacity="0.678431" />
<rect x="5" y="2" width="1" height="1" fill="#FFC022" opacity="0.996078" />
<rect x="6" y="2" width="1" height="1" fill="#FFC124" opacity="0.690196" />
<rect x="7" y="2" width="1" height="1" fill="#FFBE27" opacity="0.152941" />
<rect x="9" y="2" width="1" height="1" fill="#FFAA00" opacity="0.011765" />
<rect x="21" y="2" width="1" height="1" fill="#FF8000" opacity="0.007843" />
<rect x="24" y="2" width="1" height="1" fill="#FFC024" opacity="0.478431" />
<rect x="25" y="2" width="1" height="1" fill="#FEC022" opacity="0.956863" />
<rect x="26" y="2" width="1" height="1" fill="#FFC022" />
<rect x="27" y="2" width="1" height="1" fill="#FEBF22" opacity="0.760784" />
<rect x="1" y="3" width="1" height="1" fill="#FF8000" opacity="0.007843" />
<rect x="3" y="3" width="1" height="1" fill="#FFBF20" opacity="0.219608" />
<rect x="4" y="3" width="1" height="1" fill="#FFBF21" />
<rect x="5" y="3" width="1" height="1" fill="#FEBF20" />
<rect x="6" y="3" width="1" height="1" fill="#FEBF1B" />
<rect x="7" y="3" width="1" height="1" fill="#FFC01F" opacity="0.960784" />
<rect x="8" y="3" width="1" height="1" fill="#FFC027" opacity="0.333333" />
<rect x="10" y="3" width="1" height="1" fill="#FFFF00" opacity="0.007843" />
<rect x="20" y="3" width="1" height="1" fill="#FF8000" opacity="0.007843" />
<rect x="22" y="3" width="1" height="1" fill="#FFAA2A" opacity="0.023529" />
<rect x="23" y="3" width="1" height="1" fill="#FEC024" opacity="0.686275" />
<rect x="24" y="3" width="1" height="1" fill="#FFBF1E" />
<rect x="25" y="3" width="1" height="1" fill="#FFBF19" />
<rect x="26" y="3" width="1" height="1" fill="#FFC01D" opacity="0.992157" />
<rect x="27" y="3" width="1" height="1" fill="#FEC021" opacity="0.992157" />
<rect x="28" y="3" width="1" height="1" fill="#FFBE24" opacity="0.168627" />
<rect x="30" y="3" width="1" height="1" fill="#FFFF00" opacity="0.003922" />
<rect x="1" y="4" width="1" height="1" fill="#FFBF40" opacity="0.015686" />
<rect x="3" y="4" width="1" height="1" fill="#FFC124" opacity="0.466667" />
<rect x="4" y="4" width="1" height="1" fill="#FEBF1A" />
<rect x="5" y="4" width="1" height="1" fill="#FEC876" opacity="0.980392" />
<rect x="6" y="4" width="1" height="1" fill="#FECA93" opacity="0.980392" />
<rect x="7" y="4" width="1" height="1" fill="#FEC024" />
<rect x="8" y="4" width="1" height="1" fill="#FEBF1E" />
<rect x="9" y="4" width="1" height="1" fill="#FFBF25" opacity="0.407843" />
<rect x="11" y="4" width="1" height="1" fill="#FFAA00" opacity="0.011765" />
<rect x="12" y="4" width="1" height="1" fill="#FFFF00" opacity="0.003922" />
<rect x="13" y="4" width="1" height="1" fill="#FFAA55" opacity="0.011765" />
<rect x="14" y="4" width="1" height="1" fill="#FFAA55" opacity="0.011765" />
<rect x="15" y="4" width="1" height="1" fill="#FFBF40" opacity="0.015686" />
<rect x="16" y="4" width="1" height="1" fill="#FFBF40" opacity="0.015686" />
<rect x="17" y="4" width="1" height="1" fill="#FF8040" opacity="0.015686" />
<rect x="18" y="4" width="1" height="1" fill="#FF8000" opacity="0.007843" />
<rect x="19" y="4" width="1" height="1" fill="#FFAA00" opacity="0.011765" />
<rect x="21" y="4" width="1" height="1" fill="#FFAA2A" opacity="0.023529" />
<rect x="22" y="4" width="1" height="1" fill="#FEC025" opacity="0.760784" />
<rect x="23" y="4" width="1" height="1" fill="#FFBF1B" />
<rect x="24" y="4" width="1" height="1" fill="#FEC130" opacity="0.980392" />
<rect x="25" y="4" width="1" height="1" fill="#FECA91" opacity="0.992157" />
<rect x="26" y="4" width="1" height="1" fill="#FFC76D" opacity="0.992157" />
<rect x="27" y="4" width="1" height="1" fill="#FEBF1C" />
<rect x="28" y="4" width="1" height="1" fill="#FFC025" opacity="0.349020" />
<rect x="30" y="4" width="1" height="1" fill="#FFAA00" opacity="0.011765" />
<rect x="1" y="5" width="1" height="1" fill="#FFFF00" opacity="0.007843" />
<rect x="3" y="5" width="1" height="1" fill="#FDBE21" opacity="0.603922" />
<rect x="4" y="5" width="1" height="1" fill="#FFC022" />
<rect x="5" y="5" width="1" height="1" fill="#FFCDB1" opacity="0.980392" />
<rect x="6" y="5" width="1" height="1" fill="#FFD3E6" />
<rect x="7" y="5" width="1" height="1" fill="#FECCA0" opacity="0.988235" />
<rect x="8" y="5" width="1" height="1" fill="#FFC025" />
<rect x="9" y="5" width="1" height="1" fill="#FEBF1F" />
<rect x="10" y="5" width="1" height="1" fill="#FFC126" opacity="0.341176" />
<rect x="21" y="5" width="1" height="1" fill="#FEC024" opacity="0.694118" />
<rect x="22" y="5" width="1" height="1" fill="#FFBF1A" />
<rect x="23" y="5" width="1" height="1" fill="#FFC23C" opacity="0.976471" />
<rect x="24" y="5" width="1" height="1" fill="#FECEB9" opacity="0.996078" />
<rect x="25" y="5" width="1" height="1" fill="#FED2E4" opacity="0.996078" />
<rect x="26" y="5" width="1" height="1" fill="#FFCFBD" opacity="0.984314" />
<rect x="27" y="5" width="1" height="1" fill="#FFC025" />
<rect x="28" y="5" width="1" height="1" fill="#FFBF1F" opacity="0.450980" />
<rect x="30" y="5" width="1" height="1" fill="#FFBF40" opacity="0.015686" />
<rect x="1" y="6" width="1" height="1" fill="#FFFF00" opacity="0.003922" />
<rect x="3" y="6" width="1" height="1" fill="#FFBF20" opacity="0.666667" />
<rect x="4" y="6" width="1" height="1" fill="#FEC028" />
<rect x="5" y="6" width="1" height="1" fill="#FECFBF" opacity="0.984314" />
<rect x="6" y="6" width="1" height="1" fill="#FED0D0" opacity="0.996078" />
<rect x="7" y="6" width="1" height="1" fill="#FFD2DD" />
<rect x="8" y="6" width="1" height="1" fill="#FECB93" opacity="0.988235" />
<rect x="9" y="6" width="1" height="1" fill="#FEBF1D" />
<rect x="10" y="6" width="1" height="1" fill="#FFC022" opacity="0.976471" />
<rect x="11" y="6" width="1" height="1" fill="#FFC022" opacity="0.207843" />
<rect x="12" y="6" width="1" height="1" fill="#FF8F33" opacity="0.098039" />
<rect x="13" y="6" width="1" height="1" fill="#FF9E2D" opacity="0.309804" />
<rect x="14" y="6" width="1" height="1" fill="#FF9932" opacity="0.403922" />
<rect x="15" y="6" width="1" height="1" fill="#FFB526" opacity="0.443137" />
<rect x="16" y="6" width="1" height="1" fill="#FFB724" opacity="0.443137" />
<rect x="17" y="6" width="1" height="1" fill="#FF9E2E" opacity="0.411765" />
<rect x="18" y="6" width="1" height="1" fill="#FFA12F" opacity="0.317647" />
<rect x="19" y="6" width="1" height="1" fill="#FF9331" opacity="0.101961" />
<rect x="20" y="6" width="1" height="1" fill="#FDBF25" opacity="0.517647" />
<rect x="21" y="6" width="1" height="1" fill="#FFBF1E" />
<rect x="22" y="6" width="1" height="1" fill="#FEC134" opacity="0.980392" />
<rect x="23" y="6" width="1" height="1" fill="#FECEB9" opacity="0.996078" />
<rect x="24" y="6" width="1" height="1" fill="#FFD1D9" />
<rect x="25" y="6" width="1" height="1" fill="#FED0CF" opacity="0.996078" />
<rect x="26" y="6" width="1" height="1" fill="#FED0C9" opacity="0.980392" />
<rect x="27" y="6" width="1" height="1" fill="#FEC02A" />
<rect x="28" y="6" width="1" height="1" fill="#FFBF1C" opacity="0.498039" />
<rect x="30" y="6" width="1" height="1" fill="#FFBF40" opacity="0.015686" />
<rect x="1" y="7" width="1" height="1" fill="#FFFF00" opacity="0.003922" />
<rect x="3" y="7" width="1" height="1" fill="#FEBF1E" opacity="0.666667" />
<rect x="4" y="7" width="1" height="1" fill="#FEC02A" />
<rect x="5" y="7" width="1" height="1" fill="#FED0C9" opacity="0.984314" />
<rect x="6" y="7" width="1" height="1" fill="#FED1D3" opacity="0.996078" />
<rect x="7" y="7" width="1" height="1" fill="#FFD0CB" opacity="0.996078" />
<rect x="8" y="7" width="1" height="1" fill="#FED2DE" />
<rect x="9" y="7" width="1" height="1" fill="#FEC663" opacity="0.992157" />
<rect x="10" y="7" width="1" height="1" fill="#FFBF17" />
<rect x="11" y="7" width="1" height="1" fill="#FEC024" opacity="0.952941" />
<rect x="12" y="7" width="1" height="1" fill="#FFA12E" opacity="0.952941" />
<rect x="13" y="7" width="1" height="1" fill="#FE9A31" />
<rect x="14" y="7" width="1" height="1" fill="#FF9931" />
<rect x="15" y="7" width="1" height="1" fill="#FFB426" />
<rect x="16" y="7" width="1" height="1" fill="#FEB426" />
<rect x="17" y="7" width="1" height="1" fill="#FF9931" />
<rect x="18" y="7" width="1" height="1" fill="#FE9A31" />
<rect x="19" y="7" width="1" height="1" fill="#FEA22E" opacity="0.972549" />
<rect x="20" y="7" width="1" height="1" fill="#FEC024" />
<rect x="21" y="7" width="1" height="1" fill="#FFBF18" opacity="0.996078" />
<rect x="22" y="7" width="1" height="1" fill="#FECA89" opacity="0.996078" />
<rect x="23" y="7" width="1" height="1" fill="#FED2E5" />
<rect x="24" y="7" width="1" height="1" fill="#FFD0CA" opacity="0.996078" />
<rect x="25" y="7" width="1" height="1" fill="#FFD1D3" opacity="0.996078" />
<rect x="26" y="7" width="1" height="1" fill="#FED0CA" opacity="0.980392" />
<rect x="27" y="7" width="1" height="1" fill="#FEC02A" />
<rect x="28" y="7" width="1" height="1" fill="#FFC01D" opacity="0.490196" />
<rect x="30" y="7" width="1" height="1" fill="#FFBF40" opacity="0.015686" />
<rect x="1" y="8" width="1" height="1" fill="#FFFF00" opacity="0.007843" />
<rect x="3" y="8" width="1" height="1" fill="#FDBF1E" opacity="0.639216" />
<rect x="4" y="8" width="1" height="1" fill="#FFC029" />
<rect x="5" y="8" width="1" height="1" fill="#FECFC3" opacity="0.984314" />
<rect x="6" y="8" width="1" height="1" fill="#FED0D1" opacity="0.996078" />
<rect x="7" y="8" width="1" height="1" fill="#FFD1D8" opacity="0.996078" />
<rect x="8" y="8" width="1" height="1" fill="#FECFC3" opacity="0.996078" />
<rect x="9" y="8" width="1" height="1" fill="#FEC345" />
<rect x="10" y="8" width="1" height="1" fill="#FFBE1C" opacity="0.992157" />
<rect x="11" y="8" width="1" height="1" fill="#FEC222" />
<rect x="12" y="8" width="1" height="1" fill="#FEAE28" />
<rect x="13" y="8" width="1" height="1" fill="#FF9831" opacity="0.992157" />
<rect x="14" y="8" width="1" height="1" fill="#FF9931" opacity="0.988235" />
<rect x="15" y="8" width="1" height="1" fill="#FEB426" opacity="0.984314" />
<rect x="16" y="8" width="1" height="1" fill="#FFB426" opacity="0.984314" />
<rect x="17" y="8" width="1" height="1" fill="#FE9931" opacity="0.984314" />
<rect x="18" y="8" width="1" height="1" fill="#FF9831" opacity="0.992157" />
<rect x="19" y="8" width="1" height="1" fill="#FFAE29" />
<rect x="20" y="8" width="1" height="1" fill="#FEC221" opacity="0.996078" />
<rect x="21" y="8" width="1" height="1" fill="#FFBF1F" opacity="0.996078" />
<rect x="22" y="8" width="1" height="1" fill="#FEC237" />
<rect x="23" y="8" width="1" height="1" fill="#FECCA6" opacity="0.996078" />
<rect x="24" y="8" width="1" height="1" fill="#FFD1DA" />
<rect x="25" y="8" width="1" height="1" fill="#FED1D1" opacity="0.996078" />
<rect x="26" y="8" width="1" height="1" fill="#FFCFC3" opacity="0.984314" />
<rect x="27" y="8" width="1" height="1" fill="#FFC029" />
<rect x="28" y="8" width="1" height="1" fill="#FFBF1C" opacity="0.435294" />
<rect x="30" y="8" width="1" height="1" fill="#FFBF40" opacity="0.015686" />
<rect x="1" y="9" width="1" height="1" fill="#FFBF40" opacity="0.015686" />
<rect x="3" y="9" width="1" height="1" fill="#FFC020" opacity="0.537255" />
<rect x="4" y="9" width="1" height="1" fill="#FEC023" />
<rect x="5" y="9" width="1" height="1" fill="#FFCEB3" opacity="0.980392" />
<rect x="6" y="9" width="1" height="1" fill="#FFD2E3" />
<rect x="7" y="9" width="1" height="1" fill="#FECDB0" />
<rect x="8" y="9" width="1" height="1" fill="#FEC239" opacity="0.996078" />
<rect x="9" y="9" width="1" height="1" fill="#FEBF19" opacity="0.996078" />
<rect x="10" y="9" width="1" height="1" fill="#FFBF23" />
<rect x="11" y="9" width="1" height="1" fill="#FEC121" opacity="0.996078" />
<rect x="12" y="9" width="1" height="1" fill="#FFB825" opacity="0.996078" />
<rect x="13" y="9" width="1" height="1" fill="#FF9B30" opacity="0.996078" />
<rect x="14" y="9" width="1" height="1" fill="#FF9931" opacity="0.996078" />
<rect x="15" y="9" width="1" height="1" fill="#FFB526" opacity="0.996078" />
<rect x="16" y="9" width="1" height="1" fill="#FEB526" opacity="0.996078" />
<rect x="17" y="9" width="1" height="1" fill="#FF9931" opacity="0.996078" />
<rect x="18" y="9" width="1" height="1" fill="#FE9B30" opacity="0.996078" />
<rect x="19" y="9" width="1" height="1" fill="#FEB825" opacity="0.996078" />
<rect x="20" y="9" width="1" height="1" fill="#FFC121" opacity="0.996078" />
<rect x="21" y="9" width="1" height="1" fill="#FEBF23" />
<rect x="22" y="9" width="1" height="1" fill="#FFBF1B" opacity="0.996078" />
<rect x="23" y="9" width="1" height="1" fill="#FEC022" />
<rect x="24" y="9" width="1" height="1" fill="#FECB97" />
<rect x="25" y="9" width="1" height="1" fill="#FFD2E3" opacity="0.996078" />
<rect x="26" y="9" width="1" height="1" fill="#FECDB0" opacity="0.992157" />
<rect x="27" y="9" width="1" height="1" fill="#FEC023" />
<rect x="28" y="9" width="1" height="1" fill="#FFC020" opacity="0.349020" />
<rect x="30" y="9" width="1" height="1" fill="#FFAA00" opacity="0.011765" />
<rect x="1" y="10" width="1" height="1" fill="#FFAA00" opacity="0.011765" />
<rect x="3" y="10" width="1" height="1" fill="#FFBF26" opacity="0.392157" />
<rect x="4" y="10" width="1" height="1" fill="#FEBF1A" />
<rect x="5" y="10" width="1" height="1" fill="#FEC87D" opacity="0.988235" />
<rect x="6" y="10" width="1" height="1" fill="#FECCA1" opacity="0.996078" />
<rect x="7" y="10" width="1" height="1" fill="#FEC027" />
<rect x="8" y="10" width="1" height="1" fill="#FFBF1B" />
<rect x="9" y="10" width="1" height="1" fill="#FFC024" />
<rect x="10" y="10" width="1" height="1" fill="#FEBF21" />
<rect x="11" y="10" width="1" height="1" fill="#FFC021" />
<rect x="12" y="10" width="1" height="1" fill="#FFBF22" />
<rect x="13" y="10" width="1" height="1" fill="#FF9F2F" />
<rect x="14" y="10" width="1" height="1" fill="#FF9A31" />
<rect x="15" y="10" width="1" height="1" fill="#FFBD23" />
<rect x="16" y="10" width="1" height="1" fill="#FFBD23" />
<rect x="17" y="10" width="1" height="1" fill="#FF9A31" />
<rect x="18" y="10" width="1" height="1" fill="#FF9F2F" />
<rect x="19" y="10" width="1" height="1" fill="#FFBF22" />
<rect x="20" y="10" width="1" height="1" fill="#FEC021" />
<rect x="21" y="10" width="1" height="1" fill="#FFBF21" />
<rect x="22" y="10" width="1" height="1" fill="#FEC024" />
<rect x="23" y="10" width="1" height="1" fill="#FFBF1F" />
<rect x="24" y="10" width="1" height="1" fill="#FEBF1D" />
<rect x="25" y="10" width="1" height="1" fill="#FECB9B" opacity="0.996078" />
<rect x="26" y="10" width="1" height="1" fill="#FECB95" />
<rect x="27" y="10" width="1" height="1" fill="#FEBF1A" opacity="0.996078" />
<rect x="28" y="10" width="1" height="1" fill="#FFBF29" opacity="0.219608" />
<rect x="30" y="10" width="1" height="1" fill="#FF8000" opacity="0.007843" />
<rect x="1" y="11" width="1" height="1" fill="#FF8000" opacity="0.007843" />
<rect x="3" y="11" width="1" height="1" fill="#FFBE23" opacity="0.200000" />
<rect x="4" y="11" width="1" height="1" fill="#FEBF21" />
<rect x="5" y="11" width="1" height="1" fill="#FEC022" />
<rect x="6" y="11" width="1" height="1" fill="#FEBF1E" opacity="0.996078" />
<rect x="7" y="11" width="1" height="1" fill="#FFBF1E" />
<rect x="8" y="11" width="1" height="1" fill="#FFC024" />
<rect x="9" y="11" width="1" height="1" fill="#FEBF21" />
<rect x="10" y="11" width="1" height="1" fill="#FFBF22" />
<rect x="11" y="11" width="1" height="1" fill="#FEBF22" />
<rect x="12" y="11" width="1" height="1" fill="#FFC121" />
<rect x="13" y="11" width="1" height="1" fill="#FFB625" />
<rect x="14" y="11" width="1" height="1" fill="#FFB526" />
<rect x="15" y="11" width="1" height="1" fill="#FFC121" />
<rect x="16" y="11" width="1" height="1" fill="#FFC121" />
<rect x="17" y="11" width="1" height="1" fill="#FFB526" />
<rect x="18" y="11" width="1" height="1" fill="#FFB625" />
<rect x="19" y="11" width="1" height="1" fill="#FEC121" />
<rect x="20" y="11" width="1" height="1" fill="#FFBF22" />
<rect x="21" y="11" width="1" height="1" fill="#FEBF22" />
<rect x="22" y="11" width="1" height="1" fill="#FEBF21" />
<rect x="23" y="11" width="1" height="1" fill="#FFC023" />
<rect x="24" y="11" width="1" height="1" fill="#FFBF1F" />
<rect x="25" y="11" width="1" height="1" fill="#FEBF22" opacity="0.996078" />
<rect x="26" y="11" width="1" height="1" fill="#FEC12E" />
<rect x="27" y="11" width="1" height="1" fill="#FFBF1F" opacity="0.941176" />
<rect x="28" y="11" width="1" height="1" fill="#FFB82B" opacity="0.070588" />
<rect x="30" y="11" width="1" height="1" fill="#FFFF00" opacity="0.003922" />
<rect x="3" y="12" width="1" height="1" fill="#FFAA2A" opacity="0.023529" />
<rect x="4" y="12" width="1" height="1" fill="#FEC023" opacity="0.839216" />
<rect x="5" y="12" width="1" height="1" fill="#FFBF21" />
<rect x="6" y="12" width="1" height="1" fill="#FEC022" opacity="0.992157" />
<rect x="7" y="12" width="1" height="1" fill="#FFC023" />
<rect x="8" y="12" width="1" height="1" fill="#FEBF21" />
<rect x="9" y="12" width="1" height="1" fill="#FBBD21" />
<rect x="10" y="12" width="1" height="1" fill="#FCBE21" />
<rect x="11" y="12" width="1" height="1" fill="#FEC021" />
<rect x="12" y="12" width="1" height="1" fill="#FFBF22" />
<rect x="13" y="12" width="1" height="1" fill="#FEC121" />
<rect x="14" y="12" width="1" height="1" fill="#FFC121" />
<rect x="15" y="12" width="1" height="1" fill="#FFBF22" />
<rect x="16" y="12" width="1" height="1" fill="#FFBF22" />
<rect x="17" y="12" width="1" height="1" fill="#FFC121" />
<rect x="18" y="12" width="1" height="1" fill="#FEC121" />
<rect x="19" y="12" width="1" height="1" fill="#FFBF22" />
<rect x="20" y="12" width="1" height="1" fill="#FEBF21" />
<rect x="21" y="12" width="1" height="1" fill="#FBBD21" />
<rect x="22" y="12" width="1" height="1" fill="#FABC21" />
<rect x="23" y="12" width="1" height="1" fill="#FDBE21" />
<rect x="24" y="12" width="1" height="1" fill="#FFC023" />
<rect x="25" y="12" width="1" height="1" fill="#FFBF21" opacity="0.988235" />
<rect x="26" y="12" width="1" height="1" fill="#FFBF1F" />
<rect x="27" y="12" width="1" height="1" fill="#FEC122" opacity="0.737255" />
<rect x="2" y="13" width="1" height="1" fill="#FFFF00" opacity="0.003922" />
<rect x="4" y="13" width="1" height="1" fill="#FEC021" opacity="0.694118" />
<rect x="5" y="13" width="1" height="1" fill="#FEC022" />
<rect x="6" y="13" width="1" height="1" fill="#FFC022" opacity="0.984314" />
<rect x="7" y="13" width="1" height="1" fill="#FEBF21" />
<rect x="8" y="13" width="1" height="1" fill="#FFC122" />
<rect x="9" y="13" width="1" height="1" fill="#FFCA23" />
<rect x="10" y="13" width="1" height="1" fill="#FFC623" />
<rect x="11" y="13" width="1" height="1" fill="#FDBF21" />
<rect x="12" y="13" width="1" height="1" fill="#FFC022" />
<rect x="13" y="13" width="1" height="1" fill="#FEBF22" />
<rect x="14" y="13" width="1" height="1" fill="#FEBF22" />
<rect x="15" y="13" width="1" height="1" fill="#FFC021" />
<rect x="16" y="13" width="1" height="1" fill="#FFC021" />
<rect x="17" y="13" width="1" height="1" fill="#FEBF22" />
<rect x="18" y="13" width="1" height="1" fill="#FFBF22" />
<rect x="19" y="13" width="1" height="1" fill="#FEBF21" />
<rect x="20" y="13" width="1" height="1" fill="#FFC022" />
<rect x="21" y="13" width="1" height="1" fill="#FFCB24" />
<rect x="22" y="13" width="1" height="1" fill="#FFCE24" />
<rect x="23" y="13" width="1" height="1" fill="#FFC522" />
<rect x="24" y="13" width="1" height="1" fill="#FDBF21" />
<rect x="25" y="13" width="1" height="1" fill="#FFC022" opacity="0.988235" />
<rect x="26" y="13" width="1" height="1" fill="#FEC022" />
<rect x="27" y="13" width="1" height="1" fill="#FEBF21" opacity="0.737255" />
<rect x="1" y="14" width="1" height="1" fill="#FFFF00" opacity="0.003922" />
<rect x="3" y="14" width="1" height="1" fill="#FFBF20" opacity="0.094118" />
<rect x="4" y="14" width="1" height="1" fill="#FFBF22" opacity="0.933333" />
<rect x="5" y="14" width="1" height="1" fill="#FFC022" />
<rect x="6" y="14" width="1" height="1" fill="#FEC021" opacity="0.992157" />
<rect x="7" y="14" width="1" height="1" fill="#FFC222" />
<rect x="8" y="14" width="1" height="1" fill="#F5B820" />
<rect x="9" y="14" width="1" height="1" fill="#AD8317" />
<rect x="10" y="14" width="1" height="1" fill="#CE9B1B" />
<rect x="11" y="14" width="1" height="1" fill="#FFC522" />
<rect x="12" y="14" width="1" height="1" fill="#FDBF21" />
<rect x="13" y="14" width="1" height="1" fill="#FFC022" />
<rect x="14" y="14" width="1" height="1" fill="#FEBF21" />
<rect x="15" y="14" width="1" height="1" fill="#FFC022" />
<rect x="16" y="14" width="1" height="1" fill="#FFC022" />
<rect x="17" y="14" width="1" height="1" fill="#FFC022" />
<rect x="18" y="14" width="1" height="1" fill="#FEBF21" />
<rect x="19" y="14" width="1" height="1" fill="#FFC022" />
<rect x="20" y="14" width="1" height="1" fill="#FDBE21" />
<rect x="21" y="14" width="1" height="1" fill="#916E13" />
<rect x="22" y="14" width="1" height="1" fill="#6E540E" />
<rect x="23" y="14" width="1" height="1" fill="#D6A11C" />
<rect x="24" y="14" width="1" height="1" fill="#FFC522" />
<rect x="25" y="14" width="1" height="1" fill="#FDBE21" opacity="0.996078" />
<rect x="26" y="14" width="1" height="1" fill="#FFC021" />
<rect x="27" y="14" width="1" height="1" fill="#FEBF22" opacity="0.988235" />
<rect x="28" y="14" width="1" height="1" fill="#FFBE24" opacity="0.168627" />
<rect x="30" y="14" width="1" height="1" fill="#BFBF80" opacity="0.015686" />
<rect x="1" y="15" width="1" height="1" fill="#CCCC66" opacity="0.019608" />
<rect x="3" y="15" width="1" height="1" fill="#FCBF23" opacity="0.341176" />
<rect x="4" y="15" width="1" height="1" fill="#FEBF22" />
<rect x="5" y="15" width="1" height="1" fill="#FEC021" opacity="0.992157" />
<rect x="6" y="15" width="1" height="1" fill="#FEBF21" opacity="0.996078" />
<rect x="7" y="15" width="1" height="1" fill="#FFC222" />
<rect x="8" y="15" width="1" height="1" fill="#523F0B" />
<rect x="9" y="15" width="1" height="1" fill="#000000" />
<rect x="10" y="15" width="1" height="1" fill="#040500" />
<rect x="11" y="15" width="1" height="1" fill="#C19219" />
<rect x="12" y="15" width="1" height="1" fill="#FFC823" />
<rect x="13" y="15" width="1" height="1" fill="#FCBD21" />
<rect x="14" y="15" width="1" height="1" fill="#FEBF21" />
<rect x="15" y="15" width="1" height="1" fill="#FEBF21" />
<rect x="16" y="15" width="1" height="1" fill="#FEBF21" />
<rect x="17" y="15" width="1" height="1" fill="#FEBF21" />
<rect x="18" y="15" width="1" height="1" fill="#FBBD21" />
<rect x="19" y="15" width="1" height="1" fill="#FFCB23" />
<rect x="20" y="15" width="1" height="1" fill="#916E13" />
<rect x="21" y="15" width="1" height="1" fill="#000000" />
<rect x="22" y="15" width="1" height="1" fill="#000000" />
<rect x="23" y="15" width="1" height="1" fill="#2A2105" />
<rect x="24" y="15" width="1" height="1" fill="#FABC21" opacity="0.996078" />
<rect x="25" y="15" width="1" height="1" fill="#FFC122" opacity="0.996078" />
<rect x="26" y="15" width="1" height="1" fill="#FEBF22" opacity="0.984314" />
<rect x="27" y="15" width="1" height="1" fill="#FDBF23" />
<rect x="28" y="15" width="1" height="1" fill="#FFC11E" opacity="0.403922" />
<rect x="31" y="15" width="1" height="1" fill="#FFFFFF" opacity="0.003922" />
<rect x="3" y="16" width="1" height="1" fill="#FFC216" opacity="0.494118" />
<rect x="4" y="16" width="1" height="1" fill="#FEBF22" />
<rect x="5" y="16" width="1" height="1" fill="#FDBE23" opacity="0.980392" />
<rect x="6" y="16" width="1" height="1" fill="#FFC322" opacity="0.996078" />
<rect x="7" y="16" width="1" height="1" fill="#EFB41F" />
<rect x="8" y="16" width="1" height="1" fill="#080801" />
<rect x="9" y="16" width="1" height="1" fill="#040500" />
<rect x="10" y="16" width="1" height="1" fill="#000000" />
<rect x="11" y="16" width="1" height="1" fill="#73570F" />
<rect x="12" y="16" width="1" height="1" fill="#FFCE24" />
<rect x="13" y="16" width="1" height="1" fill="#FABC21" />
<rect x="14" y="16" width="1" height="1" fill="#FBBD21" />
<rect x="15" y="16" width="1" height="1" fill="#FDBE21" />
<rect x="16" y="16" width="1" height="1" fill="#FEBF21" />
<rect x="17" y="16" width="1" height="1" fill="#FBBD21" />
<rect x="18" y="16" width="1" height="1" fill="#FCBD21" />
<rect x="19" y="16" width="1" height="1" fill="#FFC723" />
<rect x="20" y="16" width="1" height="1" fill="#513E0A" />
<rect x="21" y="16" width="1" height="1" fill="#000000" />
<rect x="22" y="16" width="1" height="1" fill="#0A0901" />
<rect x="23" y="16" width="1" height="1" fill="#040500" />
<rect x="24" y="16" width="1" height="1" fill="#E3AB1E" />
<rect x="25" y="16" width="1" height="1" fill="#FFC423" />
<rect x="26" y="16" width="1" height="1" fill="#FEBF1F" opacity="0.984314" />
<rect x="27" y="16" width="1" height="1" fill="#FFC219" />
<rect x="28" y="16" width="1" height="1" fill="#F7BE2B" opacity="0.611765" />
<rect x="29" y="16" width="1" height="1" fill="#8E99B4" opacity="0.372549" />
<rect x="30" y="16" width="1" height="1" fill="#A3A096" opacity="0.294118" />
<rect x="1" y="17" width="1" height="1" fill="#A29F9A" opacity="0.376471" />
<rect x="2" y="17" width="1" height="1" fill="#959BA8" opacity="0.482353" />
<rect x="3" y="17" width="1" height="1" fill="#E3B447" opacity="0.737255" />
<rect x="4" y="17" width="1" height="1" fill="#FFC01F" />
<rect x="5" y="17" width="1" height="1" fill="#FFC11C" opacity="0.988235" />
<rect x="6" y="17" width="1" height="1" fill="#FFC122" />
<rect x="7" y="17" width="1" height="1" fill="#FABC21" opacity="0.996078" />
<rect x="8" y="17" width="1" height="1" fill="#201904" />
<rect x="9" y="17" width="1" height="1" fill="#000000" />
<rect x="10" y="17" width="1" height="1" fill="#000000" />
<rect x="11" y="17" width="1" height="1" fill="#7B5D10" />
<rect x="12" y="17" width="1" height="1" fill="#FFCD24" />
<rect x="13" y="17" width="1" height="1" fill="#FBBD21" />
<rect x="14" y="17" width="1" height="1" fill="#FFCB24" />
<rect x="15" y="17" width="1" height="1" fill="#FFC523" />
<rect x="16" y="17" width="1" height="1" fill="#FFC322" />
<rect x="17" y="17" width="1" height="1" fill="#FFCB24" />
<rect x="18" y="17" width="1" height="1" fill="#FEBF21" />
<rect x="19" y="17" width="1" height="1" fill="#FFCB24" />
<rect x="20" y="17" width="1" height="1" fill="#816211" />
<rect x="21" y="17" width="1" height="1" fill="#000000" />
<rect x="22" y="17" width="1" height="1" fill="#000000" />
<rect x="23" y="17" width="1" height="1" fill="#2D2306" />
<rect x="24" y="17" width="1" height="1" fill="#FDBE22" opacity="0.996078" />
<rect x="25" y="17" width="1" height="1" fill="#FFC021" />
<rect x="26" y="17" width="1" height="1" fill="#F8BD29" opacity="0.996078" />
<rect x="27" y="17" width="1" height="1" fill="#D1B05C" />
<rect x="28" y="17" width="1" height="1" fill="#AFA387" opacity="0.917647" />
<rect x="29" y="17" width="1" height="1" fill="#9E9E9E" opacity="0.564706" />
<rect x="30" y="17" width="1" height="1" fill="#A1A19B" opacity="0.180392" />
<rect x="1" y="18" width="1" height="1" fill="#9F9F99" opacity="0.156863" />
<rect x="2" y="18" width="1" height="1" fill="#9D9D9D" opacity="0.419608" />
<rect x="3" y="18" width="1" height="1" fill="#B6A77E" opacity="0.854902" />
<rect x="4" y="18" width="1" height="1" fill="#BDA977" />
<rect x="5" y="18" width="1" height="1" fill="#E5B642" opacity="0.992157" />
<rect x="6" y="18" width="1" height="1" fill="#FFBF1E" />
<rect x="7" y="18" width="1" height="1" fill="#FFC724" opacity="0.996078" />
<rect x="8" y="18" width="1" height="1" fill="#AC8217" />
<rect x="9" y="18" width="1" height="1" fill="#131002" />
<rect x="10" y="18" width="1" height="1" fill="#382B07" />
<rect x="11" y="18" width="1" height="1" fill="#DFA81D" />
<rect x="12" y="18" width="1" height="1" fill="#FFC422" />
<rect x="13" y="18" width="1" height="1" fill="#FCBE21" />
<rect x="14" y="18" width="1" height="1" fill="#9C7514" />
<rect x="15" y="18" width="1" height="1" fill="#4E3A0A" />
<rect x="16" y="18" width="1" height="1" fill="#473609" />
<rect x="17" y="18" width="1" height="1" fill="#836211" />
<rect x="18" y="18" width="1" height="1" fill="#F3B720" />
<rect x="19" y="18" width="1" height="1" fill="#FFC322" />
<rect x="20" y="18" width="1" height="1" fill="#F2B620" />
<rect x="21" y="18" width="1" height="1" fill="#69500E" />
<rect x="22" y="18" width="1" height="1" fill="#4A3909" />
<rect x="23" y="18" width="1" height="1" fill="#CE9B1B" />
<rect x="24" y="18" width="1" height="1" fill="#FFC624" opacity="0.996078" />
<rect x="25" y="18" width="1" height="1" fill="#FFBF1C" />
<rect x="26" y="18" width="1" height="1" fill="#DBB34F" opacity="0.984314" />
<rect x="27" y="18" width="1" height="1" fill="#D1B05D" />
<rect x="28" y="18" width="1" height="1" fill="#F9BF29" opacity="0.713725" />
<rect x="31" y="18" width="1" height="1" fill="#FFFF00" opacity="0.003922" />
<rect x="3" y="19" width="1" height="1" fill="#FABE27" opacity="0.658824" />
<rect x="4" y="19" width="1" height="1" fill="#E7B741" />
<rect x="5" y="19" width="1" height="1" fill="#E6B742" opacity="0.984314" />
<rect x="6" y="19" width="1" height="1" fill="#FFC01E" opacity="0.996078" />
<rect x="7" y="19" width="1" height="1" fill="#FEBF22" />
<rect x="8" y="19" width="1" height="1" fill="#FFC523" />
<rect x="9" y="19" width="1" height="1" fill="#F6B920" />
<rect x="10" y="19" width="1" height="1" fill="#FEBF21" />
<rect x="11" y="19" width="1" height="1" fill="#FFC322" />
<rect x="12" y="19" width="1" height="1" fill="#FFC222" />
<rect x="13" y="19" width="1" height="1" fill="#E5AC1E" />
<rect x="14" y="19" width="1" height="1" fill="#000000" />
<rect x="15" y="19" width="1" height="1" fill="#000000" />
<rect x="16" y="19" width="1" height="1" fill="#000000" />
<rect x="17" y="19" width="1" height="1" fill="#000000" />
<rect x="18" y="19" width="1" height="1" fill="#C4941A" />
<rect x="19" y="19" width="1" height="1" fill="#FFC623" />
<rect x="20" y="19" width="1" height="1" fill="#FFC122" />
<rect x="21" y="19" width="1" height="1" fill="#FFC723" />
<rect x="22" y="19" width="1" height="1" fill="#FFC623" />
<rect x="23" y="19" width="1" height="1" fill="#FFC623" opacity="0.996078" />
<rect x="24" y="19" width="1" height="1" fill="#FDBE22" />
<rect x="25" y="19" width="1" height="1" fill="#FFC020" />
<rect x="26" y="19" width="1" height="1" fill="#E3B646" opacity="0.992157" />
<rect x="27" y="19" width="1" height="1" fill="#D3B059" />
<rect x="28" y="19" width="1" height="1" fill="#C1AA6F" opacity="0.894118" />
<rect x="29" y="19" width="1" height="1" fill="#9C9D9F" opacity="0.686275" />
<rect x="30" y="19" width="1" height="1" fill="#9E9E9D" opacity="0.600000" />
<rect x="31" y="19" width="1" height="1" fill="#999999" opacity="0.019608" />
<rect x="0" y="20" width="1" height="1" fill="#9F9F9C" opacity="0.364706" />
<rect x="1" y="20" width="1" height="1" fill="#9E9E9C" opacity="0.729412" />
<rect x="2" y="20" width="1" height="1" fill="#9B9CA2" opacity="0.666667" />
<rect x="3" y="20" width="1" height="1" fill="#B2A584" opacity="0.858824" />
<rect x="4" y="20" width="1" height="1" fill="#C1AA71" />
<rect x="5" y="20" width="1" height="1" fill="#EAB83C" opacity="0.992157" />
<rect x="6" y="20" width="1" height="1" fill="#FFC11D" />
<rect x="7" y="20" width="1" height="1" fill="#FEBF23" opacity="0.996078" />
<rect x="8" y="20" width="1" height="1" fill="#FDBE21" />
<rect x="9" y="20" width="1" height="1" fill="#FFC122" />
<rect x="10" y="20" width="1" height="1" fill="#FFC022" />
<rect x="11" y="20" width="1" height="1" fill="#FFC222" />
<rect x="12" y="20" width="1" height="1" fill="#FFC322" />
<rect x="13" y="20" width="1" height="1" fill="#FFC022" />
<rect x="14" y="20" width="1" height="1" fill="#926E13" />
<rect x="15" y="20" width="1" height="1" fill="#0C0901" />
<rect x="16" y="20" width="1" height="1" fill="#040300" />
<rect x="17" y="20" width="1" height="1" fill="#77590F" />
<rect x="18" y="20" width="1" height="1" fill="#FABC21" />
<rect x="19" y="20" width="1" height="1" fill="#FFC422" />
<rect x="20" y="20" width="1" height="1" fill="#FDBE21" />
<rect x="21" y="20" width="1" height="1" fill="#FCBE21" />
<rect x="22" y="20" width="1" height="1" fill="#FDBE21" />
<rect x="23" y="20" width="1" height="1" fill="#FCBE21" opacity="0.996078" />
<rect x="24" y="20" width="1" height="1" fill="#FFC022" />
<rect x="25" y="20" width="1" height="1" fill="#FFC020" opacity="0.996078" />
<rect x="26" y="20" width="1" height="1" fill="#E0B54A" opacity="0.984314" />
<rect x="27" y="20" width="1" height="1" fill="#DAB350" />
<rect x="28" y="20" width="1" height="1" fill="#E1B447" opacity="0.603922" />
<rect x="29" y="20" width="1" height="1" fill="#0033FF" opacity="0.019608" />
<rect x="30" y="20" width="1" height="1" fill="#A6A68C" opacity="0.078431" />
<rect x="31" y="20" width="1" height="1" fill="#808080" opacity="0.007843" />
<rect x="0" y="21" width="1" height="1" fill="#999999" opacity="0.098039" />
<rect x="1" y="21" width="1" height="1" fill="#B1A685" opacity="0.090196" />
<rect x="3" y="21" width="1" height="1" fill="#FFC11F" opacity="0.356863" />
<rect x="4" y="21" width="1" height="1" fill="#F4BC2E" />
<rect x="5" y="21" width="1" height="1" fill="#F6BD2D" opacity="0.988235" />
<rect x="6" y="21" width="1" height="1" fill="#FFC020" opacity="0.996078" />
<rect x="7" y="21" width="1" height="1" fill="#FEBF22" opacity="0.996078" />
<rect x="8" y="21" width="1" height="1" fill="#FEBF21" />
<rect x="9" y="21" width="1" height="1" fill="#FFC122" />
<rect x="10" y="21" width="1" height="1" fill="#F5B820" />
<rect x="11" y="21" width="1" height="1" fill="#403008" />
<rect x="12" y="21" width="1" height="1" fill="#C4931A" />
<rect x="13" y="21" width="1" height="1" fill="#FFD726" />
<rect x="14" y="21" width="1" height="1" fill="#FFCB24" />
<rect x="15" y="21" width="1" height="1" fill="#281E05" />
<rect x="16" y="21" width="1" height="1" fill="#0D0A01" />
<rect x="17" y="21" width="1" height="1" fill="#FFC222" />
<rect x="18" y="21" width="1" height="1" fill="#FFDB26" />
<rect x="19" y="21" width="1" height="1" fill="#CC991B" />
<rect x="20" y="21" width="1" height="1" fill="#302406" />
<rect x="21" y="21" width="1" height="1" fill="#EDB21F" />
<rect x="22" y="21" width="1" height="1" fill="#FFC322" />
<rect x="23" y="21" width="1" height="1" fill="#FDBF22" opacity="0.996078" />
<rect x="24" y="21" width="1" height="1" fill="#FFC021" />
<rect x="25" y="21" width="1" height="1" fill="#FDBF24" opacity="0.996078" />
<rect x="26" y="21" width="1" height="1" fill="#D0AF5D" opacity="0.984314" />
<rect x="27" y="21" width="1" height="1" fill="#CFAF5F" />
<rect x="28" y="21" width="1" height="1" fill="#C2AA6F" opacity="0.721569" />
<rect x="29" y="21" width="1" height="1" fill="#9399AC" opacity="0.313725" />
<rect x="30" y="21" width="1" height="1" fill="#AA9E92" opacity="0.082353" />
<rect x="1" y="22" width="1" height="1" fill="#9F9F9F" opacity="0.031373" />
<rect x="2" y="22" width="1" height="1" fill="#9A9CA1" opacity="0.435294" />
<rect x="3" y="22" width="1" height="1" fill="#AAA38E" opacity="0.682353" />
<rect x="4" y="22" width="1" height="1" fill="#BBA877" />
<rect x="5" y="22" width="1" height="1" fill="#D4B159" opacity="0.992157" />
<rect x="6" y="22" width="1" height="1" fill="#FFC01F" opacity="0.996078" />
<rect x="7" y="22" width="1" height="1" fill="#FEBF22" opacity="0.996078" />
<rect x="8" y="22" width="1" height="1" fill="#FEBF22" opacity="0.996078" />
<rect x="9" y="22" width="1" height="1" fill="#FEBF21" />
<rect x="10" y="22" width="1" height="1" fill="#FFC322" />
<rect x="11" y="22" width="1" height="1" fill="#443309" />
<rect x="12" y="22" width="1" height="1" fill="#000000" />
<rect x="13" y="22" width="1" height="1" fill="#654C0D" />
<rect x="14" y="22" width="1" height="1" fill="#2D2206" />
<rect x="15" y="22" width="1" height="1" fill="#110D02" />
<rect x="16" y="22" width="1" height="1" fill="#140F02" />
<rect x="17" y="22" width="1" height="1" fill="#2A1F05" />
<rect x="18" y="22" width="1" height="1" fill="#6F530E" />
<rect x="19" y="22" width="1" height="1" fill="#000000" />
<rect x="20" y="22" width="1" height="1" fill="#3F2F08" />
<rect x="21" y="22" width="1" height="1" fill="#FFC222" />
<rect x="22" y="22" width="1" height="1" fill="#FEBF21" />
<rect x="23" y="22" width="1" height="1" fill="#FEBF21" opacity="0.996078" />
<rect x="24" y="22" width="1" height="1" fill="#FFC021" opacity="0.996078" />
<rect x="25" y="22" width="1" height="1" fill="#FEBF22" opacity="0.996078" />
<rect x="26" y="22" width="1" height="1" fill="#EEBA36" />
<rect x="27" y="22" width="1" height="1" fill="#E1B547" opacity="0.945098" />
<rect x="28" y="22" width="1" height="1" fill="#A29F96" opacity="0.407843" />
<rect x="29" y="22" width="1" height="1" fill="#9E9E9F" opacity="0.564706" />
<rect x="30" y="22" width="1" height="1" fill="#9E9E9E" opacity="0.266667" />
<rect x="1" y="23" width="1" height="1" fill="#9E9E9E" opacity="0.082353" />
<rect x="2" y="23" width="1" height="1" fill="#A0A099" opacity="0.431373" />
<rect x="3" y="23" width="1" height="1" fill="#8595BF" opacity="0.188235" />
<rect x="4" y="23" width="1" height="1" fill="#F1BB34" opacity="0.658824" />
<rect x="5" y="23" width="1" height="1" fill="#FBBE26" />
<rect x="6" y="23" width="1" height="1" fill="#FFC021" opacity="0.980392" />
<rect x="7" y="23" width="1" height="1" fill="#FEBF22" />
<rect x="8" y="23" width="1" height="1" fill="#FFC022" opacity="0.996078" />
<rect x="9" y="23" width="1" height="1" fill="#FDBF21" opacity="0.996078" />
<rect x="10" y="23" width="1" height="1" fill="#FFC222" />
<rect x="11" y="23" width="1" height="1" fill="#FCBE21" />
<rect x="12" y="23" width="1" height="1" fill="#906D13" />
<rect x="13" y="23" width="1" height="1" fill="#463409" />
<rect x="14" y="23" width="1" height="1" fill="#57410B" />
<rect x="15" y="23" width="1" height="1" fill="#D4A01C" />
<rect x="16" y="23" width="1" height="1" fill="#DFA71D" />
<rect x="17" y="23" width="1" height="1" fill="#5F480C" />
<rect x="18" y="23" width="1" height="1" fill="#413108" />
<rect x="19" y="23" width="1" height="1" fill="#826211" />
<rect x="20" y="23" width="1" height="1" fill="#F7BA20" />
<rect x="21" y="23" width="1" height="1" fill="#FFC322" />
<rect x="22" y="23" width="1" height="1" fill="#FDBE21" opacity="0.996078" />
<rect x="23" y="23" width="1" height="1" fill="#FFC021" opacity="0.996078" />
<rect x="24" y="23" width="1" height="1" fill="#FEBF22" />
<rect x="25" y="23" width="1" height="1" fill="#FFC021" opacity="0.976471" />
<rect x="26" y="23" width="1" height="1" fill="#FFC11D" />
<rect x="27" y="23" width="1" height="1" fill="#FFC317" opacity="0.611765" />
<rect x="4" y="24" width="1" height="1" fill="#FFC30F" opacity="0.133333" />
<rect x="5" y="24" width="1" height="1" fill="#FFC020" opacity="0.960784" />
<rect x="6" y="24" width="1" height="1" fill="#FEC022" />
<rect x="7" y="24" width="1" height="1" fill="#FFBF21" opacity="0.984314" />
<rect x="8" y="24" width="1" height="1" fill="#FEBF21" />
<rect x="9" y="24" width="1" height="1" fill="#FFC022" opacity="0.996078" />
<rect x="10" y="24" width="1" height="1" fill="#FEBF21" opacity="0.996078" />
<rect x="11" y="24" width="1" height="1" fill="#FFC022" />
<rect x="12" y="24" width="1" height="1" fill="#FFCD24" />
<rect x="13" y="24" width="1" height="1" fill="#FFCB23" />
<rect x="14" y="24" width="1" height="1" fill="#FFCD24" />
<rect x="15" y="24" width="1" height="1" fill="#FFC623" />
<rect x="16" y="24" width="1" height="1" fill="#FFC522" />
<rect x="17" y="24" width="1" height="1" fill="#FFCE24" />
<rect x="18" y="24" width="1" height="1" fill="#FFCA23" />
<rect x="19" y="24" width="1" height="1" fill="#FFCD24" />
<rect x="20" y="24" width="1" height="1" fill="#FFC122" opacity="0.996078" />
<rect x="21" y="24" width="1" height="1" fill="#FDBF21" opacity="0.996078" />
<rect x="22" y="24" width="1" height="1" fill="#FFC022" />
<rect x="23" y="24" width="1" height="1" fill="#FEBF22" />
<rect x="24" y="24" width="1" height="1" fill="#FEBF22" opacity="0.980392" />
<rect x="25" y="24" width="1" height="1" fill="#FFC021" />
<rect x="26" y="24" width="1" height="1" fill="#FEBF22" opacity="0.901961" />
<rect x="27" y="24" width="1" height="1" fill="#F3B92E" opacity="0.086275" />
<rect x="29" y="24" width="1" height="1" fill="#CC9966" opacity="0.019608" />
<rect x="30" y="24" width="1" height="1" fill="#FFFFFF" opacity="0.003922" />
<rect x="2" y="25" width="1" height="1" fill="#AAAAAA" opacity="0.011765" />
<rect x="3" y="25" width="1" height="1" fill="#CCCC66" opacity="0.019608" />
<rect x="5" y="25" width="1" height="1" fill="#FFC024" opacity="0.333333" />
<rect x="6" y="25" width="1" height="1" fill="#FEBF22" />
<rect x="7" y="25" width="1" height="1" fill="#FFC021" />
<rect x="8" y="25" width="1" height="1" fill="#FEBF22" opacity="0.980392" />
<rect x="9" y="25" width="1" height="1" fill="#FEBF21" opacity="0.996078" />
<rect x="10" y="25" width="1" height="1" fill="#FFC022" opacity="0.996078" />
<rect x="11" y="25" width="1" height="1" fill="#FEBF21" opacity="0.996078" />
<rect x="12" y="25" width="1" height="1" fill="#FBBD21" opacity="0.996078" />
<rect x="13" y="25" width="1" height="1" fill="#FCBE21" opacity="0.996078" />
<rect x="14" y="25" width="1" height="1" fill="#FBBD21" />
<rect x="15" y="25" width="1" height="1" fill="#FCBE21" />
<rect x="16" y="25" width="1" height="1" fill="#FDBE21" />
<rect x="17" y="25" width="1" height="1" fill="#FBBD21" />
<rect x="18" y="25" width="1" height="1" fill="#FDBE21" opacity="0.996078" />
<rect x="19" y="25" width="1" height="1" fill="#FBBD21" />
<rect x="20" y="25" width="1" height="1" fill="#FEBF21" opacity="0.996078" />
<rect x="21" y="25" width="1" height="1" fill="#FFC022" opacity="0.996078" />
<rect x="22" y="25" width="1" height="1" fill="#FEBF21" opacity="0.988235" />
<rect x="23" y="25" width="1" height="1" fill="#FFC021" opacity="0.980392" />
<rect x="24" y="25" width="1" height="1" fill="#FEC021" />
<rect x="25" y="25" width="1" height="1" fill="#FEBF22" opacity="0.952941" />
<rect x="26" y="25" width="1" height="1" fill="#FFBE20" opacity="0.215686" />
<rect x="28" y="25" width="1" height="1" fill="#FFAA00" opacity="0.011765" />
<rect x="4" y="26" width="1" height="1" fill="#FFFF00" opacity="0.007843" />
<rect x="6" y="26" width="1" height="1" fill="#FFBE22" opacity="0.325490" />
<rect x="7" y="26" width="1" height="1" fill="#FFBF22" opacity="0.949020" />
<rect x="8" y="26" width="1" height="1" fill="#FEC021" />
<rect x="9" y="26" width="1" height="1" fill="#FEC022" />
<rect x="10" y="26" width="1" height="1" fill="#FFC021" opacity="0.988235" />
<rect x="11" y="26" width="1" height="1" fill="#FFC022" opacity="0.980392" />
<rect x="12" y="26" width="1" height="1" fill="#FEBF21" opacity="0.984314" />
<rect x="13" y="26" width="1" height="1" fill="#FEBF21" opacity="0.988235" />
<rect x="14" y="26" width="1" height="1" fill="#FEC021" opacity="0.992157" />
<rect x="15" y="26" width="1" height="1" fill="#FFC022" opacity="0.992157" />
<rect x="16" y="26" width="1" height="1" fill="#FFC022" opacity="0.992157" />
<rect x="17" y="26" width="1" height="1" fill="#FEC021" opacity="0.992157" />
<rect x="18" y="26" width="1" height="1" fill="#FEBF21" opacity="0.988235" />
<rect x="19" y="26" width="1" height="1" fill="#FEBF21" opacity="0.984314" />
<rect x="20" y="26" width="1" height="1" fill="#FFC022" opacity="0.980392" />
<rect x="21" y="26" width="1" height="1" fill="#FFC021" opacity="0.996078" />
<rect x="22" y="26" width="1" height="1" fill="#FFC021" />
<rect x="23" y="26" width="1" height="1" fill="#FEBF22" />
<rect x="24" y="26" width="1" height="1" fill="#FEBF21" opacity="0.807843" />
<rect x="25" y="26" width="1" height="1" fill="#FFBF23" opacity="0.172549" />
<rect x="27" y="26" width="1" height="1" fill="#FFAA00" opacity="0.011765" />
<rect x="5" y="27" width="1" height="1" fill="#FFFF00" opacity="0.007843" />
<rect x="7" y="27" width="1" height="1" fill="#FFBF20" opacity="0.125490" />
<rect x="8" y="27" width="1" height="1" fill="#FFBF21" opacity="0.611765" />
<rect x="9" y="27" width="1" height="1" fill="#FEBF22" opacity="0.937255" />
<rect x="10" y="27" width="1" height="1" fill="#FEBF22" />
<rect x="11" y="27" width="1" height="1" fill="#FEC022" />
<rect x="12" y="27" width="1" height="1" fill="#FFC021" />
<rect x="13" y="27" width="1" height="1" fill="#FEC021" />
<rect x="14" y="27" width="1" height="1" fill="#FFC021" />
<rect x="15" y="27" width="1" height="1" fill="#FFBF21" />
<rect x="16" y="27" width="1" height="1" fill="#FEBF22" />
<rect x="17" y="27" width="1" height="1" fill="#FFC021" />
<rect x="18" y="27" width="1" height="1" fill="#FEC021" />
<rect x="19" y="27" width="1" height="1" fill="#FFC021" />
<rect x="20" y="27" width="1" height="1" fill="#FFBF21" />
<rect x="21" y="27" width="1" height="1" fill="#FEBF22" />
<rect x="22" y="27" width="1" height="1" fill="#FEC022" opacity="0.843137" />
<rect x="23" y="27" width="1" height="1" fill="#FFBE23" opacity="0.431373" />
<rect x="24" y="27" width="1" height="1" fill="#FFAA00" opacity="0.011765" />
<rect x="26" y="27" width="1" height="1" fill="#FFAA00" opacity="0.011765" />
<rect x="6" y="28" width="1" height="1" fill="#FFAA00" opacity="0.011765" />
<rect x="9" y="28" width="1" height="1" fill="#FFBF20" opacity="0.094118" />
<rect x="10" y="28" width="1" height="1" fill="#FFC022" opacity="0.349020" />
<rect x="11" y="28" width="1" height="1" fill="#FDBF23" opacity="0.545098" />
<rect x="12" y="28" width="1" height="1" fill="#FFBF22" opacity="0.682353" />
<rect x="13" y="28" width="1" height="1" fill="#FEBF23" opacity="0.780392" />
<rect x="14" y="28" width="1" height="1" fill="#FEBF22" opacity="0.827451" />
<rect x="15" y="28" width="1" height="1" fill="#FEC021" opacity="0.866667" />
<rect x="16" y="28" width="1" height="1" fill="#FFC021" opacity="0.866667" />
<rect x="17" y="28" width="1" height="1" fill="#FEBF22" opacity="0.823529" />
<rect x="18" y="28" width="1" height="1" fill="#FFBF22" opacity="0.764706" />
<rect x="19" y="28" width="1" height="1" fill="#FDBF22" opacity="0.654902" />
<rect x="20" y="28" width="1" height="1" fill="#FFBF23" opacity="0.486275" />
<rect x="21" y="28" width="1" height="1" fill="#FFBF24" opacity="0.250980" />
<rect x="22" y="28" width="1" height="1" fill="#FFBF40" opacity="0.015686" />
<rect x="25" y="28" width="1" height="1" fill="#FF8000" opacity="0.007843" />
<rect x="7" y="29" width="1" height="1" fill="#FFFF00" opacity="0.003922" />
<rect x="8" y="29" width="1" height="1" fill="#FFFF00" opacity="0.007843" />
<rect x="13" y="29" width="1" height="1" fill="#FFFF00" opacity="0.003922" />
<rect x="14" y="29" width="1" height="1" fill="#FFBF40" opacity="0.015686" />
<rect x="15" y="29" width="1" height="1" fill="#FFB624" opacity="0.027451" />
<rect x="16" y="29" width="1" height="1" fill="#FFB624" opacity="0.027451" />
<rect x="17" y="29" width="1" height="1" fill="#FFBF40" opacity="0.015686" />
<rect x="23" y="29" width="1" height="1" fill="#FFAA00" opacity="0.011765" />
<rect x="9" y="30" width="1" height="1" fill="#FFFF00" opacity="0.003922" />
<rect x="10" y="30" width="1" height="1" fill="#FFAA00" opacity="0.011765" />
<rect x="11" y="30" width="1" height="1" fill="#FFAA00" opacity="0.011765" />
<rect x="12" y="30" width="1" height="1" fill="#FFFF00" opacity="0.003922" />
<rect x="19" y="30" width="1" height="1" fill="#FFFF00" opacity="0.003922" />
<rect x="20" y="30" width="1" height="1" fill="#FFBF40" opacity="0.015686" />
<rect x="21" y="30" width="1" height="1" fill="#FF8000" opacity="0.007843" />
</svg>